<?xml version="1.0" standalone="no"?>
<!DOCTYPE svg PUBLIC "-//W3C//DTD SVG 20010904//EN"
 "http://www.w3.org/TR/2001/REC-SVG-20010904/DTD/svg10.dtd">
<svg version="1.0" xmlns="http://www.w3.org/2000/svg"
 width="6000.000000pt" height="6000.000000pt" viewBox="0 0 6000.000000 6000.000000"
 preserveAspectRatio="xMidYMid meet">
<metadata>
Created by potrace 1.14, written by Peter Selinger 2001-2017
</metadata>
<g transform="translate(0.000000,6000.000000) scale(0.100000,-0.100000)"
fill="#000000" stroke="none">
<path d="M26650 49994 c-25 -2 -106 -8 -180 -14 -353 -29 -807 -134 -1141
-264 -176 -68 -210 -83 -424 -191 -578 -291 -1042 -672 -1476 -1210 -69 -86
-124 -164 -231 -327 -378 -580 -607 -1241 -679 -1963 -20 -191 -17 -663 5
-850 56 -491 168 -904 367 -1352 59 -133 72 -159 169 -333 272 -491 679 -965
1130 -1314 665 -517 1435 -822 2285 -907 165 -17 652 -17 805 0 593 65 1064
201 1564 453 540 272 1056 687 1420 1143 27 33 56 69 65 80 9 11 46 61 82 110
493 679 770 1445 829 2295 63 911 -185 1862 -688 2640 -243 376 -528 696 -898
1010 -201 171 -598 430 -819 535 -22 10 -92 43 -155 73 -188 88 -498 199 -710
253 -183 47 -441 93 -638 115 -130 14 -586 26 -682 18z m485 -1254 c615 -53
1196 -283 1685 -669 58 -46 182 -160 275 -255 307 -309 521 -632 680 -1027
243 -602 290 -1272 135 -1909 -288 -1179 -1249 -2092 -2445 -2325 -160 -31
-304 -46 -500 -52 -576 -17 -1111 115 -1630 402 -64 35 -303 191 -315 205 -3
3 -34 28 -70 55 -162 124 -341 299 -495 485 -203 246 -412 613 -520 915 -91
251 -154 546 -176 820 -14 169 -6 473 16 639 74 556 288 1072 624 1506 98 127
112 142 280 310 181 181 273 256 466 385 456 303 941 470 1500 518 93 8 379 6
490 -3z"/>
<path d="M14795 40905 c-285 -79 -486 -361 -462 -650 7 -82 27 -148 177 -585
62 -179 116 -336 120 -350 5 -14 90 -266 190 -560 522 -1537 835 -2518 1084
-3400 77 -275 166 -608 166 -624 0 -7 -69 -76 -152 -154 -257 -237 -676 -666
-913 -937 -189 -215 -240 -275 -396 -470 -456 -566 -834 -1124 -1209 -1785
-126 -221 -396 -760 -500 -997 l-85 -192 -55 -10 c-30 -5 -253 -50 -495 -99
-269 -55 -498 -95 -590 -105 -433 -46 -813 -227 -1125 -539 -313 -313 -497
-701 -540 -1138 -8 -83 -10 -851 -7 -2765 3 -2423 5 -2657 20 -2729 63 -301
147 -511 290 -726 323 -484 836 -786 1422 -835 44 -4 280 -47 525 -96 245 -50
470 -95 500 -100 l55 -10 37 -87 c103 -242 338 -725 476 -977 517 -947 1149
-1822 1905 -2640 263 -284 791 -794 1063 -1025 340 -290 578 -482 827 -666
126 -92 177 -136 181 -154 3 -14 172 -1026 376 -2250 203 -1224 376 -2256 385
-2295 95 -408 422 -763 825 -894 181 -58 72 -55 1682 -58 1607 -4 1566 -5
1762 52 274 80 520 264 681 510 145 221 146 226 329 1325 86 513 158 936 161
938 2 3 91 -12 197 -32 1822 -343 3697 -387 5548 -130 468 64 1009 163 1429
260 89 20 164 34 168 30 4 -4 80 -444 169 -979 89 -535 171 -1009 183 -1055
51 -197 166 -396 316 -548 181 -183 384 -293 645 -350 81 -18 160 -19 1590
-19 1402 0 1511 1 1587 18 467 101 833 434 957 874 14 48 147 817 296 1708
149 891 340 2035 425 2542 85 507 155 924 155 926 0 3 62 58 138 123 403 344
697 621 1077 1015 587 608 1207 1403 1640 2104 37 61 85 137 105 170 33 52
105 176 205 350 16 28 73 133 127 235 775 1453 1242 3020 1372 4600 30 358 37
529 37 940 0 741 -42 1239 -169 2017 -9 51 -8 52 42 121 101 138 167 213 307
349 359 348 860 582 1384 647 154 19 305 30 305 22 0 -3 -24 -39 -54 -79 -278
-377 -459 -840 -531 -1367 -23 -160 -31 -536 -15 -685 46 -447 169 -803 394
-1143 363 -546 980 -912 1675 -993 155 -17 494 -7 641 20 457 85 837 284 1140
597 332 343 511 787 536 1328 13 275 -44 676 -138 964 -11 35 -18 65 -15 68 4
4 41 -36 176 -191 14 -16 73 -91 131 -166 393 -510 758 -1149 1075 -1882 80
-183 105 -225 179 -300 168 -167 398 -224 622 -156 128 39 264 138 337 246 63
92 107 240 107 358 0 114 -27 192 -181 532 -639 1414 -1430 2470 -2329 3114
-58 41 -127 88 -153 105 -26 16 -71 43 -100 61 -390 239 -821 399 -1242 460
-74 11 -193 17 -365 18 -242 2 -258 3 -299 24 -23 12 -104 45 -179 73 -844
311 -1775 325 -2606 41 -406 -139 -785 -346 -1120 -613 -48 -39 -90 -70 -91
-68 -2 2 -19 50 -38 108 -292 877 -668 1697 -1131 2463 -58 96 -231 373 -238
382 -5 6 -42 60 -82 120 -179 272 -365 531 -555 775 -101 130 -224 283 -246
306 -6 6 -31 35 -56 64 -24 29 -61 74 -83 99 -56 66 -145 169 -192 221 -22 25
-56 63 -75 84 -294 337 -766 800 -1229 1207 -77 68 -435 362 -531 436 -383
299 -777 578 -1181 836 -180 115 -550 339 -663 401 -27 16 -93 52 -145 81
-171 96 -281 154 -584 306 -1956 984 -4118 1558 -6401 1699 -530 33 -1381 37
-1885 10 -1420 -76 -2691 -293 -4000 -683 -183 -55 -234 -71 -495 -158 l-270
-90 -219 132 c-234 141 -255 153 -616 361 -278 160 -524 299 -670 378 -58 31
-151 82 -207 113 -106 58 -493 264 -718 383 -232 121 -1163 586 -1430 713
-492 235 -961 452 -1475 681 -102 45 -223 99 -270 120 -226 102 -510 220 -550
229 -63 15 -245 12 -305 -4z m1441 -1861 c115 -53 238 -107 274 -121 36 -15
70 -30 77 -35 7 -6 16 -1 26 13 15 20 37 19 37 -2 0 -6 -4 -8 -9 -5 -5 3 -12
-1 -15 -10 -5 -12 -1 -14 15 -9 15 5 22 2 26 -14 5 -20 39 -38 50 -27 3 3 20
-6 37 -19 17 -14 36 -29 42 -34 6 -5 21 -12 34 -16 13 -4 80 -35 149 -70 69
-34 142 -68 161 -75 19 -7 42 -19 50 -25 15 -11 147 -75 156 -75 2 0 21 -10
42 -23 20 -13 73 -39 117 -57 44 -19 85 -37 90 -41 33 -23 349 -187 550 -286
61 -30 126 -63 145 -74 19 -11 51 -27 70 -36 19 -8 37 -18 40 -22 3 -3 25 -16
50 -29 161 -83 316 -166 385 -206 44 -25 83 -46 88 -46 4 0 24 -11 45 -23 20
-13 75 -44 122 -69 47 -25 103 -55 125 -68 92 -53 275 -156 345 -195 75 -42
352 -198 380 -215 8 -5 56 -33 105 -61 230 -135 421 -249 431 -257 21 -19 156
-92 169 -92 7 0 24 -9 39 -21 14 -11 31 -17 38 -13 7 4 10 3 5 -1 -8 -10 21
-45 38 -45 7 0 30 -14 51 -31 47 -37 122 -72 141 -65 8 3 12 2 9 -3 -6 -9 8
-15 89 -41 49 -16 172 -16 252 0 55 11 189 55 257 84 90 38 718 240 982 315
424 121 959 248 1374 326 395 73 584 103 955 149 637 80 1123 113 1800 122
814 12 1636 -39 2420 -151 714 -102 1271 -218 2050 -429 50 -13 135 -38 190
-56 55 -17 136 -42 180 -55 206 -61 795 -265 910 -315 22 -10 94 -38 160 -63
194 -74 438 -176 590 -247 22 -10 87 -40 145 -65 249 -111 599 -286 830 -415
129 -72 488 -274 527 -297 106 -62 127 -73 138 -73 7 0 18 -7 26 -16 7 -9 21
-13 34 -10 14 4 27 -2 38 -14 11 -14 13 -20 4 -20 -8 0 -8 -3 2 -9 8 -5 20 -7
28 -4 8 3 13 2 12 -3 -4 -21 3 -31 34 -48 17 -11 104 -67 192 -125 703 -464
1337 -969 1905 -1517 69 -66 149 -143 179 -170 29 -27 72 -69 95 -93 186 -199
297 -311 309 -312 6 -1 19 -3 27 -4 8 -1 24 -3 35 -4 19 -1 19 -2 2 -12 -9 -6
-27 -7 -38 -4 -14 5 -9 -4 18 -28 37 -35 61 -44 29 -12 -17 17 -21 35 -8 35
15 -1 42 -28 42 -43 0 -9 7 -23 16 -31 14 -15 14 -16 0 -16 -22 0 -20 -17 4
-30 11 -6 26 -23 34 -38 8 -15 28 -40 43 -57 15 -16 41 -46 57 -65 52 -64 179
-200 186 -200 3 0 15 8 26 18 16 16 22 17 46 4 31 -15 34 -22 16 -41 -11 -10
-8 -16 11 -30 13 -10 21 -22 18 -27 -3 -5 15 -7 39 -5 42 3 44 2 44 -23 0 -24
4 -26 39 -26 44 0 57 -18 36 -47 -13 -17 -14 -17 -15 0 0 24 -42 22 -58 -3
-10 -17 -9 -20 12 -26 14 -3 30 -3 35 1 7 3 11 -2 11 -14 0 -12 5 -21 11 -21
5 0 8 -4 5 -9 -3 -5 6 -12 19 -15 14 -4 23 -11 20 -17 -4 -5 -2 -15 3 -22 5
-7 12 -24 16 -39 3 -16 11 -28 16 -28 6 0 10 -7 10 -15 0 -8 5 -15 10 -15 6 0
10 -23 10 -51 0 -55 26 -111 61 -129 10 -6 19 -17 19 -24 0 -11 56 -104 70
-116 4 -3 37 -52 75 -110 37 -58 77 -118 88 -135 12 -16 46 -68 77 -115 105
-158 310 -493 310 -504 0 -4 35 -69 78 -144 77 -136 366 -705 392 -772 8 -19
28 -66 46 -105 17 -38 55 -126 84 -195 29 -69 61 -145 72 -170 10 -25 35 -88
54 -140 19 -52 41 -111 49 -130 90 -219 274 -823 360 -1185 94 -397 136 -617
189 -995 82 -586 109 -1037 97 -1625 -3 -170 -6 -349 -6 -397 0 -47 -3 -84 -7
-81 -5 2 -8 -22 -8 -54 0 -98 -49 -547 -86 -778 -47 -306 -77 -466 -128 -700
-33 -150 -127 -528 -160 -640 -8 -27 -24 -81 -35 -120 -11 -38 -29 -97 -40
-130 -12 -33 -41 -121 -66 -195 -155 -473 -363 -966 -625 -1485 -203 -401
-394 -730 -649 -1115 -53 -80 -98 -149 -100 -155 -10 -24 -286 -402 -390 -535
-28 -36 -56 -80 -62 -98 -6 -18 -15 -30 -20 -26 -6 3 -8 -6 -4 -23 4 -19 3
-22 -3 -9 -7 16 -14 11 -57 -38 -27 -32 -56 -67 -64 -79 -8 -12 -20 -25 -25
-29 -13 -9 10 -28 34 -28 10 0 11 -3 3 -11 -9 -9 -16 -7 -29 6 -17 17 -19 17
-34 -6 -8 -13 -25 -34 -37 -46 -12 -13 -18 -23 -13 -23 4 0 3 -11 -3 -24 -6
-13 -17 -21 -25 -19 -14 6 -43 -27 -35 -39 2 -5 -6 -21 -18 -36 l-21 -27 7 25
8 25 -27 -28 c-24 -26 -25 -30 -11 -50 35 -50 8 -86 -54 -72 -30 6 -46 -11
-35 -39 3 -8 -3 -20 -14 -27 -12 -7 -18 -19 -14 -27 3 -10 1 -13 -6 -8 -8 5
-11 0 -9 -16 1 -15 -4 -23 -17 -26 -11 -2 -34 -19 -51 -38 -18 -19 -35 -34
-39 -34 -9 0 -56 -51 -56 -60 0 -20 53 -40 105 -40 l55 0 0 -40 c0 -35 -3 -40
-23 -40 -31 0 -47 -18 -47 -52 0 -25 -4 -28 -31 -28 -16 0 -28 -4 -25 -9 3 -5
-1 -11 -9 -15 -10 -3 -15 1 -15 11 0 14 -2 14 -20 -2 -18 -16 -34 -15 -36 3
-4 31 -19 42 -56 42 -27 0 -46 6 -57 19 -16 18 -18 18 -59 -20 -46 -43 -49
-49 -28 -49 9 0 12 -8 9 -24 -5 -22 -1 -25 41 -31 60 -9 64 -35 6 -35 -29 0
-40 -4 -40 -15 0 -8 -9 -15 -20 -15 -11 0 -23 7 -26 15 -10 24 -74 19 -104 -9
-60 -54 -75 -77 -60 -86 8 -5 11 -12 7 -17 -5 -4 -12 -1 -16 6 -5 8 -14 10
-21 6 -9 -6 -9 -9 1 -16 10 -6 4 -17 -23 -43 -21 -20 -42 -36 -48 -36 -5 0
-10 -5 -10 -12 0 -6 -3 -8 -6 -5 -4 4 -1 14 7 23 32 40 -30 -7 -109 -81 -70
-66 -80 -80 -71 -96 6 -13 6 -19 -1 -19 -5 0 -10 4 -10 9 0 17 -60 -20 -82
-49 -12 -16 -41 -41 -65 -57 -23 -15 -43 -33 -43 -40 0 -7 -6 -13 -13 -13 -7
0 -26 -14 -43 -31 -27 -30 -27 -31 -6 -26 33 8 27 -14 -13 -50 -29 -26 -36
-28 -46 -17 -15 19 -33 18 -25 -1 4 -10 -1 -15 -14 -15 -20 0 -27 -27 -21 -84
1 -17 -2 -16 -22 7 -28 33 -38 34 -63 5 -10 -12 -13 -18 -5 -13 11 6 13 2 8
-23 -5 -24 -3 -32 8 -32 8 0 15 -4 15 -9 0 -5 9 -13 21 -16 34 -11 16 -28 -46
-42 -33 -8 -64 -18 -69 -23 -16 -16 -29 -11 -15 6 11 13 8 15 -27 12 -21 -2
-42 -7 -46 -12 -3 -5 10 -29 29 -53 32 -39 33 -43 15 -43 -12 0 -24 5 -27 10
-11 18 -22 1 -17 -28 3 -25 0 -30 -21 -36 -17 -4 -24 -13 -24 -29 0 -33 -33
-97 -49 -97 -8 0 -14 -9 -14 -20 0 -11 -7 -20 -16 -20 -20 0 -74 -60 -74 -82
0 -10 4 -18 10 -18 19 0 -2 -28 -26 -34 -14 -4 -28 -14 -31 -24 -4 -9 -13 -23
-20 -30 -19 -20 -16 -29 12 -36 15 -4 25 -13 25 -24 0 -15 -2 -15 -11 -2 -8
12 -9 9 -4 -10 3 -14 10 -34 14 -45 36 -90 41 -118 27 -139 -14 -21 -50 -27
-74 -12 -36 22 -62 -49 -87 -234 -4 -25 -12 -76 -20 -115 -7 -38 -16 -101 -20
-140 -3 -38 -10 -83 -15 -100 -13 -39 -24 -106 -124 -700 -139 -827 -156 -929
-162 -985 -2 -19 -10 -64 -18 -100 -8 -36 -22 -119 -31 -185 -9 -66 -20 -145
-24 -175 -5 -30 -6 -68 -3 -84 3 -18 0 -31 -9 -37 -10 -6 -5 -9 16 -10 l30 -1
-27 -9 c-25 -9 -26 -12 -16 -41 8 -23 8 -36 -1 -49 -6 -10 -11 -29 -11 -41 0
-17 -3 -20 -9 -9 -6 10 -13 -3 -21 -43 -6 -32 -10 -60 -7 -62 2 -2 23 -5 47
-7 46 -3 69 -26 28 -28 -16 -1 -18 -3 -6 -6 25 -6 34 -44 14 -58 -25 -18 -20
-54 9 -67 28 -13 33 -39 10 -58 -11 -9 -13 -24 -10 -56 5 -35 3 -44 -10 -44
-8 0 -15 -4 -15 -9 0 -5 -7 -17 -17 -26 -13 -14 -14 -18 -3 -25 11 -7 11 -12
2 -23 -7 -8 -12 -19 -11 -23 4 -25 -1 -36 -13 -26 -14 11 -58 -17 -58 -37 0
-6 -4 -11 -10 -11 -15 0 -12 -27 5 -44 8 -8 15 -19 15 -25 0 -15 17 -14 23 2
3 9 10 7 23 -5 18 -17 18 -18 0 -18 -15 0 -17 -5 -11 -27 3 -16 8 -38 9 -50 1
-13 6 -26 9 -30 4 -3 7 -17 7 -29 0 -16 10 -29 30 -39 31 -16 31 -15 14 -119
-4 -26 -2 -41 6 -46 16 -10 4 -31 -14 -24 -8 3 -17 1 -20 -4 -9 -15 12 -64 24
-57 5 3 10 0 10 -8 0 -9 -21 -20 -52 -29 -34 -9 -52 -19 -50 -27 2 -8 -3 -11
-12 -8 -8 3 -17 1 -19 -6 -3 -9 -8 -8 -20 2 -14 11 -20 11 -34 0 -10 -8 -21
-18 -25 -24 -11 -14 -10 -37 1 -31 5 3 12 -2 15 -11 5 -12 -4 -27 -29 -50 -37
-34 -64 -42 -66 -20 -3 39 -44 -157 -86 -413 -9 -52 -19 -98 -22 -102 -3 -4
-158 -8 -344 -9 -189 0 -339 -5 -343 -10 -3 -5 -11 -9 -17 -9 -7 0 -6 4 3 11
11 8 0 9 -43 5 -32 -2 -66 -11 -75 -18 -10 -8 -13 -9 -9 -1 12 19 -39 23 -273
20 -166 -1 -214 -5 -212 -14 1 -7 -7 -13 -18 -13 -11 0 -20 7 -20 15 0 14 -54
16 -477 15 -263 0 -564 -1 -669 0 l-190 0 -27 158 c-15 86 -41 238 -57 337
-76 465 -211 1275 -220 1320 -5 28 -21 124 -36 215 -14 91 -35 212 -46 270
-11 58 -20 111 -20 118 -1 6 -7 12 -14 12 -8 0 -11 12 -7 39 6 42 -25 201 -38
201 -5 0 -9 -8 -9 -17 0 -37 -15 -45 -43 -23 -30 24 -35 56 -13 85 14 19 15
19 36 0 l22 -20 -7 34 c-28 130 -199 296 -362 353 -93 32 -293 33 -395 3 -38
-11 -68 -23 -68 -27 0 -5 -8 -8 -17 -9 -14 0 -13 -2 5 -9 24 -10 29 -25 11
-35 -5 -4 -14 -18 -19 -31 -8 -21 -16 -24 -65 -24 -45 0 -55 -3 -56 -17 0 -12
-2 -13 -6 -5 -3 7 3 22 13 33 9 10 14 22 9 27 -4 4 -10 1 -12 -6 -6 -15 -23
-6 -23 13 0 7 9 17 21 20 11 4 19 8 17 10 -2 2 -22 -2 -43 -10 -31 -10 -36
-15 -22 -20 21 -9 23 -55 2 -55 -8 0 -15 6 -15 13 0 7 -6 21 -13 32 -13 17
-17 17 -93 1 -43 -10 -108 -26 -144 -36 -36 -10 -78 -21 -93 -24 -16 -4 -51
-17 -77 -30 -27 -13 -50 -20 -52 -15 -4 11 -63 1 -363 -59 -956 -191 -1797
-286 -2787 -314 -960 -27 -1906 35 -2918 192 -301 46 -664 117 -1065 206 -227
51 -258 56 -337 51 -49 -2 -94 -9 -100 -14 -7 -6 -31 -14 -53 -18 -77 -13
-147 -57 -239 -148 -78 -77 -87 -89 -75 -104 12 -15 12 -16 -3 -10 -11 4 -22
-3 -34 -21 -14 -21 -15 -31 -6 -55 12 -30 8 -47 -9 -47 -5 0 -9 8 -9 17 0 10
-8 2 -19 -18 -17 -32 -76 -347 -96 -514 -3 -27 -10 -70 -15 -95 -5 -25 -23
-126 -40 -225 -17 -99 -35 -200 -40 -225 -5 -25 -19 -99 -29 -165 -25 -149
-46 -276 -72 -425 -11 -63 -29 -169 -39 -235 -26 -168 -110 -648 -114 -652 -4
-4 -2678 -4 -2683 0 -2 2 -17 82 -33 178 -32 186 -44 253 -65 364 -7 39 -19
104 -25 145 -7 41 -16 88 -21 104 -5 15 -7 32 -4 36 3 5 1 30 -4 57 -5 26 -14
82 -21 123 -21 134 -52 254 -61 239 -6 -10 -9 -6 -9 13 0 15 -4 29 -9 32 -6 4
-6 19 0 39 9 33 5 158 -5 187 -3 8 -22 112 -41 230 -19 118 -53 319 -76 445
-23 127 -43 254 -46 284 -4 39 -8 50 -15 40 -7 -10 -8 -5 -4 16 3 17 -1 68 -9
115 -8 47 -28 171 -45 275 -17 105 -40 232 -51 282 -10 51 -19 108 -19 127 0
19 -5 38 -10 41 -6 4 -8 11 -4 16 8 14 -17 139 -27 133 -5 -3 -16 3 -26 13
-16 16 -16 23 -6 53 16 47 15 109 -2 205 -8 44 -19 112 -25 150 -6 39 -21 135
-35 215 -13 80 -42 253 -64 386 -43 258 -67 339 -126 429 -45 67 -139 155
-236 220 -63 42 -191 136 -519 379 -30 22 -71 54 -91 71 -89 75 -114 90 -124
75 -3 -5 -20 -10 -37 -10 -30 0 -30 1 -14 19 16 18 15 20 -27 45 -25 14 -56
39 -70 55 -13 16 -35 31 -48 33 -16 2 -25 11 -27 26 -2 12 -10 22 -17 22 -8 0
-16 9 -20 20 -5 16 -9 18 -25 8 -14 -9 -22 -9 -34 1 -20 17 -21 37 -1 45 24 9
18 20 -37 65 -29 24 -111 98 -183 165 -71 68 -161 152 -199 187 -178 165 -464
463 -745 774 -108 120 -242 280 -366 435 -211 266 -237 300 -288 370 -26 36
-56 76 -66 90 -11 14 -56 77 -101 140 -46 63 -86 117 -89 120 -3 3 -15 21 -25
40 -11 19 -22 37 -26 40 -9 8 -100 148 -100 155 0 4 -11 21 -24 38 -57 76
-257 415 -403 682 -165 301 -232 434 -342 670 -29 61 -55 117 -60 125 -4 8
-25 56 -45 105 -70 167 -119 276 -141 315 l-15 25 -1 -25 c-1 -17 -3 -19 -6
-7 -3 10 -14 17 -29 17 -14 0 -22 -4 -19 -10 7 -12 -39 -32 -58 -24 -7 2 -14
18 -15 34 -3 39 -19 80 -32 80 -5 0 -10 7 -10 14 0 8 -12 21 -27 28 -22 10
-29 21 -31 51 -2 20 -7 37 -13 37 -5 0 -9 12 -8 28 l0 27 16 -22 c21 -31 46
-30 102 5 9 5 -104 96 -156 125 -65 36 -200 77 -337 102 -78 15 -157 31 -176
35 -19 5 -100 23 -180 39 -80 16 -179 37 -220 45 -41 9 -178 37 -305 62 -126
26 -270 55 -320 65 -49 10 -119 18 -155 19 -284 3 -529 197 -600 476 -19 75
-20 120 -21 1593 -1 834 -4 1503 -6 1487 -5 -29 -33 -69 -33 -46 0 6 -4 8 -10
5 -5 -3 -10 -1 -10 4 0 6 5 11 10 11 24 0 -13 41 -41 47 -38 7 -46 38 -30 117
17 85 17 112 -3 131 -9 9 -14 20 -11 25 3 5 1 11 -5 15 -16 10 -12 21 13 33
12 6 16 11 10 11 -20 1 -15 21 5 21 9 0 29 11 44 25 15 14 32 25 38 25 5 0 11
17 11 38 l2 37 7 -40 c6 -32 7 -24 9 43 1 87 -7 99 -40 61 -18 -20 -18 -20
-36 0 -10 11 -35 37 -56 59 -24 26 -33 42 -25 45 9 3 7 9 -7 20 -20 16 -20 16
3 37 12 11 22 22 22 25 0 15 -15 35 -26 35 -8 0 -14 7 -14 15 0 24 22 65 35
65 24 0 26 60 5 96 -21 33 -19 84 2 84 6 0 8 6 5 14 -4 10 7 16 39 21 46 6 58
27 32 53 -8 8 -8 12 -1 12 6 0 14 11 17 25 4 14 11 25 16 25 6 0 10 7 10 15 0
11 -12 15 -44 15 -39 0 -44 3 -44 23 0 12 -3 32 -7 44 -5 16 -2 23 15 28 18 6
20 9 9 16 -11 7 -10 11 5 22 18 13 17 15 -7 41 -14 15 -30 25 -36 22 -16 -10
1 36 30 84 17 27 24 47 18 51 -17 10 -28 76 -16 88 15 15 23 14 41 -5 12 -11
16 -12 16 -2 0 21 -17 41 -28 34 -5 -3 -24 -1 -41 5 -37 13 -44 53 -10 62 11
3 23 15 26 26 4 15 13 21 34 21 26 0 28 3 32 43 2 26 5 10 7 -43 l3 -85 7 95
c4 52 8 152 9 221 1 160 26 263 88 371 76 132 221 244 368 285 28 7 98 18 157
23 112 9 359 53 416 73 17 6 32 17 32 23 0 8 16 12 48 12 52 -1 166 19 120 21
-15 0 -31 7 -35 15 -4 7 -19 19 -32 26 -23 12 -23 11 -19 -14 5 -23 3 -26 -16
-20 -11 3 -29 8 -39 11 -16 4 -16 6 3 30 11 14 17 29 15 34 -5 8 30 32 50 34
50 5 104 19 99 27 -3 5 -14 6 -24 3 -10 -3 -21 -1 -25 5 -3 5 -1 10 6 10 16 0
59 48 59 66 0 7 9 14 20 14 17 0 20 -5 16 -37 -2 -21 -1 -30 1 -21 2 9 13 20
24 23 10 4 21 16 24 28 5 20 12 22 75 21 38 0 73 -3 76 -7 4 -4 21 -7 38 -7
23 0 27 -3 18 -12 -7 -7 -12 -25 -12 -40 0 -15 -4 -28 -10 -28 -5 0 -10 -18
-10 -39 0 -33 4 -40 23 -44 21 -4 21 -4 -3 -6 -32 -2 -112 -30 -85 -30 20 0
77 11 150 27 34 8 36 10 12 11 -33 1 -32 20 2 37 12 6 31 28 42 49 34 62 39
65 79 45 19 -10 46 -27 59 -39 30 -26 111 -29 135 -5 25 24 38 54 32 70 -5 13
5 14 64 8 49 -5 70 -3 70 5 0 6 -17 11 -40 11 -29 0 -40 4 -40 15 0 8 -7 15
-16 15 -14 0 -14 3 -4 15 7 8 23 15 36 15 13 0 25 8 29 19 3 10 19 21 35 25
21 4 30 11 30 26 0 15 6 20 28 19 24 0 25 -1 7 -9 -19 -9 -19 -9 3 -16 12 -3
22 -13 22 -20 0 -8 16 -22 35 -31 33 -16 36 -16 50 3 8 10 18 29 21 42 5 17
13 22 38 22 77 0 111 48 61 86 -14 10 -25 26 -25 34 0 16 55 70 71 70 5 0 9
11 9 24 0 24 23 56 40 56 4 0 10 -7 14 -15 3 -9 19 -15 41 -15 27 0 35 -4 35
-17 0 -15 2 -16 9 -3 6 8 7 18 4 24 -4 5 0 7 9 4 11 -5 21 7 36 40 60 135 73
169 78 200 5 31 4 33 -14 23 -16 -9 -26 -5 -55 23 -39 37 -39 50 0 35 18 -7
28 -5 40 6 9 10 23 13 35 9 16 -5 19 -2 16 13 -2 10 -9 17 -15 16 -16 -3 -24
24 -10 35 16 12 49 12 65 -1 8 -7 12 -5 12 6 0 9 6 22 14 29 16 17 76 144 76
163 0 7 3 15 8 17 6 3 99 184 116 228 3 8 20 40 37 70 23 40 32 70 34 107 2
52 13 80 22 56 6 -18 23 -16 23 1 0 8 6 16 13 19 7 2 8 8 3 13 -5 5 -11 4 -13
-3 -9 -25 -23 -12 -17 15 9 38 24 51 25 21 1 -16 3 -19 6 -6 2 9 10 17 16 17
11 0 120 170 157 244 22 43 54 100 60 106 11 11 70 112 70 120 0 5 3 10 8 12
8 3 65 89 107 163 24 42 139 215 306 460 35 52 319 432 349 469 10 12 54 66
97 121 44 55 86 107 94 115 8 8 28 33 44 55 16 22 34 45 39 50 6 6 24 28 40
50 16 22 46 56 66 75 19 19 60 64 90 100 30 36 85 97 121 135 37 39 86 92 110
120 24 27 187 193 362 367 175 175 314 318 309 318 -5 0 -13 7 -16 16 -4 11
-1 14 12 10 33 -10 101 38 222 154 20 19 56 51 80 70 24 19 58 49 75 65 37 36
125 175 125 198 0 10 5 17 10 17 6 0 10 6 10 13 0 9 -9 12 -29 9 -29 -4 -47
10 -36 27 3 6 17 6 36 -1 35 -12 34 -13 42 30 l7 32 -60 0 c-59 0 -60 0 -49
24 10 21 42 39 74 40 6 1 13 6 17 11 4 6 8 0 8 -13 0 -14 4 -21 11 -16 6 3 9
15 6 25 -3 12 -1 17 5 13 17 -11 0 125 -29 235 -13 53 -42 168 -63 256 -21 88
-48 189 -58 225 -11 36 -23 81 -27 100 -15 75 -57 196 -73 208 -9 6 -11 12 -5
12 12 0 2 52 -17 95 -5 11 -25 85 -45 165 -39 157 -73 266 -74 238 -1 -10 -5
-18 -11 -18 -13 0 -13 16 2 39 9 15 9 26 0 45 -6 14 -21 65 -32 113 -12 48
-25 92 -28 98 -4 5 -7 15 -8 22 -5 30 -26 83 -32 79 -4 -2 -8 14 -9 37 -2 22
-7 43 -12 46 -4 3 -11 20 -14 36 -3 17 -20 77 -37 135 -18 58 -41 134 -51 170
-10 36 -25 85 -33 110 -8 25 -29 92 -46 150 -17 58 -40 128 -50 155 -10 28
-44 131 -76 230 -67 209 -73 222 -96 217 -11 -2 -18 3 -18 12 0 9 -5 16 -10
16 -14 0 -49 78 -50 106 0 26 -9 30 -81 39 l-54 7 -2 38 c-2 24 3 43 12 50 20
16 19 34 0 26 -23 -8 -66 15 -63 33 2 9 11 15 21 15 19 -2 23 11 6 21 -7 5 -4
14 7 26 16 18 16 19 0 19 -21 0 -38 40 -24 58 7 8 7 12 0 12 -11 0 -33 76 -24
85 11 11 61 5 59 -7 -2 -7 1 -3 7 10 7 15 16 20 27 17 15 -5 14 6 -12 87 -15
51 -33 94 -39 96 -5 2 -10 17 -10 33 0 16 -6 46 -14 66 -7 21 -21 63 -30 93
-9 30 -49 155 -90 278 -41 122 -71 222 -67 222 4 0 101 -43 217 -96z m320
-120 c18 -14 18 -14 -6 -3 -31 14 -36 19 -24 19 6 0 19 -7 30 -16z m647 -299
c-3 -9 -8 -14 -10 -11 -3 3 -2 9 2 15 9 16 15 13 8 -4z m1181 -464 c3 -5 -1
-14 -9 -21 -13 -10 -15 -9 -15 9 0 21 14 28 24 12z m63 -38 c-9 -9 -20 -13
-24 -9 -4 4 -1 11 7 16 25 16 35 11 17 -7z m-2207 -187 c0 -7 -9 -16 -21 -19
-20 -5 -20 -5 -3 14 20 23 24 23 24 5z m279 -399 c0 -21 -1 -21 -9 -2 -12 28
-12 37 0 30 6 -3 10 -16 9 -28z m231 -777 c0 -5 -8 -10 -17 -10 -15 0 -16 2
-3 10 19 12 20 12 20 0z m18133 -1424 c17 5 18 4 7 -8 -12 -12 -19 -11 -56 6
-24 12 -39 26 -37 33 4 9 14 5 35 -12 21 -18 37 -24 51 -19z m-17606 -978 c-3
-8 -6 -5 -6 6 -1 11 2 17 5 13 3 -3 4 -12 1 -19z m21203 -2208 c0 -5 -4 -10
-10 -10 -5 0 -10 5 -10 10 0 6 5 10 10 10 6 0 10 -4 10 -10z m84 -66 c9 -24 6
-42 -4 -19 -5 11 -9 14 -9 7 -1 -7 -5 -11 -11 -7 -10 6 -2 35 10 35 4 0 11 -7
14 -16z m-24540 -2113 c3 -5 -3 -11 -14 -14 -20 -5 -35 5 -23 17 9 9 31 7 37
-3z m-74 -245 c0 -3 -4 -8 -10 -11 -5 -3 -10 -1 -10 4 0 6 5 11 10 11 6 0 10
-2 10 -4z m-468 -448 c-9 -9 -15 -9 -24 0 -9 9 -7 12 12 12 19 0 21 -3 12 -12z
m-282 -128 c0 -5 -7 -10 -16 -10 -8 0 -12 5 -9 10 3 6 10 10 16 10 5 0 9 -4 9
-10z m-815 -280 c14 -7 8 -8 -20 -3 -22 3 -42 7 -44 9 -9 8 45 2 64 -6z
m32899 -561 c220 -149 454 -386 615 -621 223 -328 381 -818 381 -1176 -1 -412
-219 -674 -631 -758 -101 -20 -346 -15 -449 10 -186 46 -363 141 -493 265
-222 212 -329 492 -329 861 -1 540 194 1018 521 1280 24 19 48 40 55 46 13 12
132 83 191 113 56 28 70 26 139 -20z m-34084 -429 c0 -5 -2 -10 -4 -10 -3 0
-8 5 -11 10 -3 6 -1 10 4 10 6 0 11 -4 11 -10z m-93 -1742 c-3 -8 -6 -5 -6 6
-1 11 2 17 5 13 3 -3 4 -12 1 -19z m2338 -3968 c3 -6 -1 -7 -9 -4 -18 7 -21
14 -7 14 6 0 13 -4 16 -10z m243 -152 c3 -13 -3 -18 -22 -18 -14 0 -26 2 -26
4 0 2 -3 12 -6 21 -6 13 -1 16 22 13 18 -2 30 -10 32 -20z m-88 -118 c0 -11
-4 -20 -10 -20 -5 0 -10 2 -10 4 0 2 -3 11 -6 20 -4 11 -1 16 10 16 9 0 16 -8
16 -20z m24456 -3247 c-10 -10 -19 5 -10 18 6 11 8 11 12 0 2 -7 1 -15 -2 -18z
m-136 -273 c0 -5 -7 -10 -16 -10 -8 0 -12 5 -9 10 3 6 10 10 16 10 5 0 9 -4 9
-10z m-65 -30 c3 -5 1 -10 -4 -10 -6 0 -11 5 -11 10 0 6 2 10 4 10 3 0 8 -4
11 -10z m32 -36 c-3 -3 -12 -4 -19 -1 -8 3 -5 6 6 6 11 1 17 -2 13 -5z m-153
-195 c58 -3 78 -16 70 -46 -8 -30 -22 -29 -34 3 -10 25 -14 26 -60 22 -35 -4
-50 -1 -50 7 0 15 11 26 20 20 3 -2 28 -5 54 -6z m-309 -169 c-3 -5 -11 -10
-16 -10 -6 0 -7 5 -4 10 3 6 11 10 16 10 6 0 7 -4 4 -10z m-32 -37 c-7 -2 -19
-2 -25 0 -7 3 -2 5 12 5 14 0 19 -2 13 -5z m47 -13 c0 -5 -5 -10 -11 -10 -5 0
-7 5 -4 10 3 6 8 10 11 10 2 0 4 -4 4 -10z m50 -10 c0 -5 -4 -10 -10 -10 -5 0
-10 5 -10 10 0 6 5 10 10 10 6 0 10 -4 10 -10z m124 -19 c17 -6 17 -8 4 -14
-9 -3 -24 1 -35 8 -14 11 -15 14 -3 14 8 0 24 -4 34 -8z m-87 -73 c-3 -8 -6
-5 -6 6 -1 11 2 17 5 13 3 -3 4 -12 1 -19z m-62 -48 c3 -5 -1 -10 -9 -10 -9 0
-16 5 -16 10 0 6 4 10 9 10 6 0 13 -4 16 -10z m-690 -430 c3 -5 1 -10 -4 -10
-6 0 -11 5 -11 10 0 6 2 10 4 10 3 0 8 -4 11 -10z m-131 -290 c-7 -7 -19 -7
-35 -1 -23 9 -22 10 11 10 23 1 31 -2 24 -9z m-4 -30 c0 -5 -8 -10 -17 -10
-15 0 -16 2 -3 10 19 12 20 12 20 0z m-596 -695 c-4 -8 -10 -15 -15 -15 -5 0
-9 7 -9 15 0 8 7 15 15 15 9 0 12 -6 9 -15z m-187 -722 c-10 -22 -13 -24 -15
-9 -2 10 2 22 10 27 19 12 19 12 5 -18z m-17209 -977 c-7 -8 -15 -12 -17 -11
-5 6 10 25 20 25 5 0 4 -6 -3 -14z m62 -36 c0 -5 -7 -10 -16 -10 -8 0 -12 5
-9 10 3 6 10 10 16 10 5 0 9 -4 9 -10z m13232 -735 c-2 -46 -12 -63 -24 -41
-6 11 -17 14 -34 10 -20 -5 -24 -2 -24 15 0 12 6 21 15 21 8 0 15 -4 15 -9 0
-5 9 -11 20 -14 17 -4 20 0 20 31 0 19 3 32 7 29 3 -4 6 -23 5 -42z m-13115
-67 c-3 -8 -6 -5 -6 6 -1 11 2 17 5 13 3 -3 4 -12 1 -19z m16670 -280 c-3 -8
-6 -5 -6 6 -1 11 2 17 5 13 3 -3 4 -12 1 -19z m-13112 -88 c3 -5 -1 -10 -10
-10 -9 0 -13 5 -10 10 3 6 8 10 10 10 2 0 7 -4 10 -10z m-15 -237 c0 -10 -32
-43 -42 -43 -13 0 -9 38 5 43 18 8 37 8 37 0z m-3387 -490 c-7 -2 -19 -2 -25
0 -7 3 -2 5 12 5 14 0 19 -2 13 -5z m16517 -43 c0 -5 -7 -10 -15 -10 -8 0 -15
5 -15 10 0 6 7 10 15 10 8 0 15 -4 15 -10z m-10 -160 c0 -5 -2 -10 -4 -10 -3
0 -8 5 -11 10 -3 6 -1 10 4 10 6 0 11 -4 11 -10z m-16353 -537 c-3 -10 -5 -4
-5 12 0 17 2 24 5 18 2 -7 2 -21 0 -30z m-13 -28 c5 -22 4 -26 -4 -15 -5 8
-10 24 -10 34 0 26 6 18 14 -19z m16376 15 c0 -5 -4 -10 -10 -10 -5 0 -10 5
-10 10 0 6 5 10 10 10 6 0 10 -4 10 -10z m-13976 -704 c3 -13 2 -35 -3 -48
l-8 -23 -8 25 c-13 38 -12 70 1 70 7 0 15 -11 18 -24z m11303 8 c-3 -3 -12 -4
-19 -1 -8 3 -5 6 6 6 11 1 17 -2 13 -5z m1166 -1 c-7 -2 -21 -2 -30 0 -10 3
-4 5 12 5 17 0 24 -2 18 -5z"/>
<path d="M16321 38034 c0 -11 3 -14 6 -6 3 7 2 16 -1 19 -3 4 -6 -2 -5 -13z"/>
<path d="M16290 37920 c0 -6 7 -10 15 -10 8 0 15 2 15 4 0 2 -7 6 -15 10 -8 3
-15 1 -15 -4z"/>
<path d="M16401 37817 c-1 -18 5 -30 17 -34 9 -4 22 -14 29 -22 11 -14 12 -14
13 2 0 28 -19 57 -34 51 -8 -3 -16 2 -19 13 -3 12 -5 8 -6 -10z"/>
<path d="M26775 36535 c4 -42 -11 -63 -50 -69 -36 -7 -105 11 -105 26 0 34
-67 48 -110 23 -14 -8 -44 -14 -67 -15 -36 0 -43 3 -43 20 0 11 -5 20 -10 20
-6 0 -10 -6 -8 -12 1 -7 -3 -23 -10 -35 -7 -12 -8 -24 -3 -27 15 -10 0 -44
-22 -50 -26 -7 -36 2 -17 14 28 17 -19 38 -83 38 -47 0 -60 -3 -64 -17 -4 -16
-65 -41 -98 -41 -8 0 -15 -5 -15 -11 0 -5 5 -7 10 -4 6 3 10 2 10 -4 0 -13
-45 -25 -60 -16 -5 3 -8 11 -5 16 4 5 -2 9 -11 9 -16 0 -16 1 0 19 12 13 15
27 10 45 -5 22 -3 26 17 26 13 0 35 3 48 7 23 6 22 6 -8 19 -18 7 -45 11 -60
8 -16 -4 -32 -1 -35 5 -9 14 -46 14 -46 0 0 -6 -8 -8 -18 -5 -14 5 -18 1 -17
-14 1 -11 4 -23 8 -26 3 -4 -3 -18 -13 -32 -11 -13 -20 -29 -20 -33 0 -5 -8
-18 -17 -29 -23 -26 -67 -26 -94 1 -11 11 -27 18 -35 15 -19 -7 -29 -6 -27 4
1 4 -4 14 -12 20 -12 10 -15 10 -15 -2 0 -11 -7 -14 -25 -10 -18 3 -25 0 -25
-12 0 -11 9 -16 27 -16 20 0 24 -3 16 -11 -8 -8 -19 -8 -42 2 -17 8 -31 17
-31 21 0 5 -14 8 -31 8 -27 0 -30 3 -25 23 7 31 -39 52 -97 43 -39 -6 -40 -6
-22 8 18 13 17 14 -25 10 -90 -10 -111 -15 -117 -30 -5 -13 -19 -15 -82 -10
-46 4 -82 3 -91 -4 -10 -6 -11 -10 -2 -10 6 0 12 -4 12 -10 0 -5 -7 -10 -15
-10 -8 0 -15 -4 -15 -9 0 -15 -56 -31 -68 -19 -8 8 -15 8 -26 -1 -10 -9 -16
-9 -21 -1 -8 12 -35 -32 -35 -56 0 -8 -10 -14 -24 -14 -28 0 -43 -15 -24 -24
7 -2 2 -3 -12 -2 -14 2 -25 9 -25 17 0 8 -6 18 -13 22 -11 7 -10 12 4 28 15
17 15 19 1 25 -9 3 -13 12 -10 21 5 13 0 15 -28 10 -19 -3 -67 -9 -107 -13
-56 -5 -75 -11 -83 -25 -5 -11 -17 -19 -27 -19 -15 0 -15 2 -2 11 19 13 -63 5
-104 -11 -23 -8 -26 -13 -17 -24 7 -9 8 -17 2 -20 -5 -3 -7 -15 -4 -26 7 -25
-5 -26 -23 -2 -12 16 -13 15 -14 -5 0 -14 -6 -23 -15 -23 -8 0 -15 -6 -15 -13
0 -12 -35 -31 -80 -42 -19 -4 -31 0 -44 14 -11 12 -27 21 -38 21 -14 0 -18 8
-18 40 0 33 -3 40 -20 40 -17 0 -20 -7 -20 -41 0 -34 -3 -40 -16 -35 -19 7
-47 -12 -38 -25 3 -5 -7 -8 -23 -8 -17 1 -21 3 -10 6 29 8 19 23 -15 23 -25 0
-29 3 -18 10 8 5 11 10 5 10 -5 0 -3 4 5 10 27 17 2 21 -57 10 -32 -7 -92 -18
-133 -25 -94 -16 -277 -63 -304 -77 -11 -6 -27 -17 -34 -25 -16 -15 -42 -17
-42 -3 0 6 -4 10 -10 10 -5 0 -7 -7 -4 -15 4 -8 -1 -26 -10 -40 -9 -13 -13
-31 -10 -39 4 -10 1 -16 -9 -16 -8 0 -14 8 -13 17 0 10 -7 18 -19 20 l-20 3
20 -9 c14 -7 15 -10 5 -10 -8 -1 -27 -8 -42 -15 -24 -13 -28 -13 -28 -1 0 11
-6 12 -25 5 -20 -8 -27 -6 -35 10 -7 14 -7 20 0 20 5 0 10 5 10 10 0 6 -7 10
-15 10 -8 0 -15 -4 -15 -10 0 -5 -7 -10 -15 -10 -20 0 -110 -57 -151 -96 -209
-196 -263 -488 -137 -739 43 -85 107 -161 173 -207 25 -18 47 -34 50 -37 7 -8
88 -48 135 -66 22 -9 85 -21 140 -27 98 -10 102 -10 255 26 286 69 365 87 415
96 28 5 93 18 145 29 489 102 892 159 1495 211 405 34 640 43 1105 43 690 -1
1325 -48 1936 -143 109 -17 227 -35 262 -41 100 -15 597 -115 712 -144 258
-64 438 -34 612 103 93 72 154 162 205 297 22 60 26 86 26 180 1 94 -3 122
-27 192 -15 46 -32 85 -37 89 -5 3 -21 -1 -34 -10 -30 -20 -35 -20 -35 -2 0 8
-9 18 -20 21 -15 5 -20 15 -20 38 1 18 -2 45 -6 61 -6 25 -4 28 10 23 27 -11
18 6 -26 45 -24 21 -45 33 -46 28 -3 -7 -9 -7 -18 1 -8 6 -12 15 -9 19 6 10
-10 23 -68 54 -50 26 -166 60 -175 51 -3 -3 2 -5 11 -5 9 0 19 -4 22 -10 3 -5
0 -7 -9 -4 -12 5 -16 -5 -18 -48 -3 -50 -5 -53 -30 -56 -16 -2 -28 1 -28 6 0
6 -7 12 -14 15 -10 4 -13 1 -9 -9 8 -21 -23 -18 -33 4 -4 9 -8 19 -8 22 -1 3
-5 10 -9 16 -9 15 14 24 41 17 11 -2 23 0 26 6 4 6 1 11 -6 11 -7 1 0 8 16 17
29 15 29 16 10 30 -12 9 -33 12 -59 8 -28 -3 -34 -2 -20 4 17 7 15 9 -15 14
-19 4 -68 8 -108 10 -71 3 -72 2 -50 -15 20 -15 21 -19 8 -28 -21 -14 -28 -12
-40 8 -10 16 -10 16 -20 0 -14 -24 -30 -23 -30 1 0 32 27 45 98 44 l67 -1 -50
9 c-27 5 -66 6 -85 4 -24 -4 -29 -3 -16 3 17 8 18 9 3 15 -11 4 -20 0 -27 -13
-6 -12 -6 -20 0 -22 17 -5 -12 -68 -32 -68 -9 0 -34 14 -54 32 -32 28 -34 33
-18 39 14 6 10 8 -15 8 -33 1 -34 2 -15 16 19 14 19 14 -2 15 -12 0 -28 9 -35
20 -11 16 -36 23 -123 35 -59 9 -112 17 -116 20 -4 2 -22 7 -41 9 -19 3 -56 9
-82 14 -27 5 -57 7 -68 5 -10 -3 -19 -1 -19 5 0 5 -46 15 -102 21 -57 6 -128
15 -159 21 -30 5 -81 10 -112 10 -30 0 -59 5 -62 10 -8 14 -72 13 -81 -1 -3
-6 0 -15 7 -20 11 -7 9 -9 -6 -9 -15 0 -16 -3 -7 -9 11 -7 11 -11 -2 -24 -9
-8 -16 -20 -16 -26 0 -6 -4 -11 -10 -11 -5 0 -10 7 -10 15 0 8 4 15 9 15 6 0
9 9 8 20 -1 11 -8 20 -17 20 -12 0 -12 2 -1 9 7 5 9 11 5 14 -5 3 -17 -6 -27
-19 -10 -13 -13 -24 -7 -24 6 0 8 -5 3 -12 -4 -7 -6 -21 -5 -30 3 -19 -22 -23
-65 -12 -18 5 -23 14 -23 40 0 39 -13 50 -34 28 -11 -10 -16 -11 -16 -3 0 8
-6 7 -18 -4 -24 -22 -27 -21 -30 7 -2 24 21 42 39 30 5 -3 9 -1 9 4 0 6 -12
13 -27 17 -19 4 -23 9 -14 14 14 9 -19 15 -169 31 -137 14 -173 13 -167 -4 3
-8 -1 -20 -9 -26 -8 -7 -14 -11 -15 -9 0 2 -2 12 -4 22 -4 24 -4 23 -42 32
-31 6 -49 -8 -21 -17 8 -3 6 -7 -5 -11 -10 -4 -16 -2 -14 6 1 7 -4 12 -10 11
-7 -1 -23 -2 -36 -2 -15 -2 -23 -9 -24 -23 -2 -26 -14 -39 -20 -21 -3 6 -11
12 -19 12 -8 0 -14 6 -14 13 -1 7 -6 5 -14 -5 -7 -10 -18 -18 -25 -18 -6 0
-16 -9 -23 -20 -10 -15 -24 -20 -59 -20 -38 0 -48 4 -58 24 -7 13 -10 34 -6
47 5 19 4 21 -4 9 -8 -11 -11 -11 -11 -2 0 7 7 15 15 18 8 4 13 10 10 15 -6 8
-36 1 -45 -11 -3 -4 -16 -10 -30 -14 -23 -6 -23 -6 -7 7 9 8 17 17 17 20 0 11
-53 17 -65 7 -20 -17 -134 -14 -151 3 -11 11 -52 8 -60 -4 -3 -6 -16 -8 -27
-5 -12 3 -27 0 -34 -6 -7 -6 -13 -6 -13 -1 0 22 -56 33 -175 33 -90 0 -125 -3
-128 -12 -3 -10 -9 -10 -26 0 -11 6 -38 12 -60 12 -39 0 -39 0 -36 -35z m725
-24 c0 -6 -4 -13 -10 -16 -5 -3 -10 1 -10 9 0 9 5 16 10 16 6 0 10 -4 10 -9z
m-1437 -8 c-13 -2 -33 -2 -45 0 -13 2 -3 4 22 4 25 0 35 -2 23 -4z m1387 -13
c0 -11 -5 -20 -12 -20 -6 0 -8 3 -5 7 4 3 2 12 -4 20 -9 10 -8 13 5 13 9 0 16
-8 16 -20z m-990 -20 c0 -5 -2 -10 -4 -10 -3 0 -8 5 -11 10 -3 6 -1 10 4 10 6
0 11 -4 11 -10z m27 -12 c-3 -8 -6 -5 -6 6 -1 11 2 17 5 13 3 -3 4 -12 1 -19z
m-1294 -15 c-7 -2 -19 -2 -25 0 -7 3 -2 5 12 5 14 0 19 -2 13 -5z m327 -9 c0
-8 -5 -12 -10 -9 -6 4 -8 11 -5 16 9 14 15 11 15 -7z m790 -1 c0 -5 -7 -16
-14 -26 -12 -16 -14 -16 -20 -1 -10 26 -7 34 14 34 11 0 20 -3 20 -7z m2488
-26 c3 -12 -5 -19 -27 -23 -17 -4 -31 -13 -31 -20 0 -8 -5 -14 -11 -14 -6 0
-9 7 -5 15 4 12 -4 15 -39 15 -38 0 -45 -3 -45 -20 0 -11 -4 -20 -10 -20 -15
0 -12 33 5 57 24 35 157 43 163 10z m-3220 -24 c2 -8 -5 -13 -17 -13 -21 0
-35 13 -24 24 10 10 36 3 41 -11z m-1018 -32 c0 -4 -11 -6 -25 -3 -14 2 -25 6
-25 8 0 2 11 4 25 4 14 0 25 -4 25 -9z m4580 -1 c0 -5 -4 -10 -10 -10 -5 0
-10 5 -10 10 0 6 5 10 10 10 6 0 10 -4 10 -10z m-73 -22 c-3 -8 -6 -5 -6 6 -1
11 2 17 5 13 3 -3 4 -12 1 -19z m106 -13 c-10 -13 -31 -29 -48 -35 -16 -7 -42
-18 -56 -26 -24 -12 -27 -12 -33 4 -3 9 -9 23 -12 30 -4 8 3 12 18 12 13 0 33
8 46 18 12 9 40 18 62 19 l41 3 -18 -25z m200 18 c-7 -2 -21 -2 -30 0 -10 3
-4 5 12 5 17 0 24 -2 18 -5z m114 -19 c-3 -3 -12 -4 -19 -1 -8 3 -5 6 6 6 11
1 17 -2 13 -5z m-7 -33 c0 -6 -5 -13 -10 -16 -6 -4 -8 -10 -6 -13 2 -4 -3 -23
-12 -42 -18 -37 -62 -54 -62 -25 0 8 9 15 20 15 11 0 20 5 20 10 0 6 -9 10
-19 10 -24 0 -33 13 -25 34 7 19 54 22 55 4 0 -7 4 -3 9 10 9 22 30 31 30 13z
m127 -66 c-7 -14 -18 -25 -25 -25 -9 0 -8 7 5 25 23 32 34 32 20 0z m341 -4
c10 -6 6 -10 -15 -14 -32 -6 -38 -3 -28 12 7 13 25 14 43 2z m-773 -11 c3 -5
1 -10 -4 -10 -6 0 -11 5 -11 10 0 6 2 10 4 10 3 0 8 -4 11 -10z m298 -25 c4
-8 2 -17 -3 -20 -6 -4 -10 3 -10 14 0 25 6 27 13 6z m488 5 c5 0 9 -4 9 -10 0
-14 -13 -12 -36 6 -17 14 -17 15 -1 10 10 -3 23 -6 28 -6z m89 -20 c0 -5 -6
-10 -14 -10 -8 0 -18 5 -21 10 -3 6 3 10 14 10 12 0 21 -4 21 -10z m-293 -6
c-3 -3 -12 -4 -19 -1 -8 3 -5 6 6 6 11 1 17 -2 13 -5z m-6177 -19 c0 -8 -4
-15 -10 -15 -5 0 -10 7 -10 15 0 8 5 15 10 15 6 0 10 -7 10 -15z m6703 -22
c-7 -2 -13 -11 -13 -19 0 -8 -4 -14 -9 -14 -5 0 -7 9 -4 20 3 11 13 20 22 19
10 0 11 -2 4 -6z m-6752 -48 c-3 -5 -5 -19 -3 -30 2 -18 1 -18 -9 2 -7 13 -8
34 -4 50 7 25 8 26 15 8 4 -11 5 -24 1 -30z m6813 4 c-12 -13 -20 -16 -22 -9
-3 7 2 16 9 21 25 16 32 9 13 -12z m-54 -33 c0 -3 -4 -8 -10 -11 -5 -3 -10 -1
-10 4 0 6 5 11 10 11 6 0 10 -2 10 -4z m87 -8 c17 10 53 5 53 -8 0 -4 -10 -12
-22 -18 -18 -8 -19 -11 -5 -11 19 -1 22 -27 7 -51 -8 -13 -10 -13 -10 1 0 12
-13 19 -45 23 -52 8 -59 15 -45 51 8 22 13 24 30 15 13 -7 26 -7 37 -2z m83
-28 c0 -5 -9 -10 -21 -10 -11 0 -17 5 -14 10 3 6 13 10 21 10 8 0 14 -4 14
-10z m-160 -84 c0 -11 -19 -15 -25 -6 -3 5 1 10 9 10 9 0 16 -2 16 -4z m-63
-68 c-3 -8 -6 -5 -6 6 -1 11 2 17 5 13 3 -3 4 -12 1 -19z"/>
<path d="M28668 36403 c6 -2 18 -2 25 0 6 3 1 5 -13 5 -14 0 -19 -2 -12 -5z"/>
<path d="M26080 36540 c0 -5 15 -10 33 -10 24 0 28 3 17 10 -20 13 -50 13 -50
0z"/>
<path d="M27840 36530 c0 -6 12 -10 27 -10 29 0 24 12 -7 17 -11 2 -20 -2 -20
-7z"/>
<path d="M27644 36495 c3 -20 13 -28 26 -20 8 5 8 11 -1 21 -15 18 -28 18 -25
-1z"/>
<path d="M25488 36493 c6 -2 18 -2 25 0 6 3 1 5 -13 5 -14 0 -19 -2 -12 -5z"/>
<path d="M28400 36479 c0 -5 5 -7 10 -4 6 3 10 8 10 11 0 2 -4 4 -10 4 -5 0
-10 -5 -10 -11z"/>
<path d="M28465 36470 c4 -6 11 -8 16 -5 14 9 11 15 -7 15 -8 0 -12 -5 -9 -10z"/>
<path d="M25015 36440 c-3 -5 -2 -10 4 -10 5 0 18 -3 28 -7 16 -6 16 -5 4 10
-15 19 -27 22 -36 7z"/>
<path d="M29600 36300 c0 -5 7 -10 16 -10 8 0 12 5 9 10 -3 6 -10 10 -16 10
-5 0 -9 -4 -9 -10z"/>
<path d="M24138 36293 c7 -3 16 -2 19 1 4 3 -2 6 -13 5 -11 0 -14 -3 -6 -6z"/>
<path d="M23420 36140 c0 -5 5 -10 10 -10 6 0 10 5 10 10 0 6 -4 10 -10 10 -5
0 -10 -4 -10 -10z"/>
<path d="M23340 36120 c-24 -8 -23 -8 8 -9 17 -1 32 4 32 9 0 11 -5 11 -40 0z"/>
<path d="M23425 36110 c-3 -5 -1 -10 4 -10 6 0 11 5 11 10 0 6 -2 10 -4 10 -3
0 -8 -4 -11 -10z"/>
<path d="M30048 36103 c7 -3 16 -2 19 1 4 3 -2 6 -13 5 -11 0 -14 -3 -6 -6z"/>
<path d="M23350 36090 c-12 -8 -11 -10 8 -10 12 0 22 5 22 10 0 13 -11 13 -30
0z"/>
<path d="M17320 31234 c-405 -54 -776 -331 -951 -710 -72 -155 -105 -289 -115
-462 -6 -107 7 -222 26 -222 5 0 7 -12 4 -27 -6 -30 30 -222 43 -232 5 -3 24
-44 42 -91 75 -185 170 -309 350 -459 151 -124 337 -213 511 -245 47 -8 95
-18 107 -22 14 -4 28 1 42 15 22 22 51 28 51 11 0 -5 -4 -10 -10 -10 -5 0 -10
-5 -10 -11 0 -6 9 -9 20 -6 12 3 18 1 14 -5 -15 -24 302 14 411 50 99 32 109
39 90 59 -8 8 -15 21 -15 29 0 8 -4 12 -10 9 -5 -3 -10 0 -10 9 0 8 13 17 29
21 34 7 58 30 41 40 -15 9 -12 25 5 25 8 0 15 5 15 10 0 6 -7 10 -15 10 -23 0
-18 43 6 58 14 9 24 10 33 3 20 -17 96 -24 96 -9 0 7 -9 19 -20 26 -23 14 -26
49 -7 74 12 15 15 13 32 -18 19 -35 35 -44 35 -20 0 16 19 21 103 31 39 5 57
4 57 -4 0 -6 7 -11 16 -11 10 0 14 7 12 23 -2 18 -9 22 -34 21 -29 -2 -30 0
-20 22 6 13 16 22 23 20 7 -3 15 4 18 15 4 10 15 19 27 19 13 0 24 10 31 30 8
22 22 33 54 44 l43 15 -6 -27 c-4 -21 -3 -24 5 -12 9 13 12 12 17 -7 l6 -23
19 24 c23 29 24 49 4 66 -8 7 -12 17 -9 22 3 5 -3 18 -14 28 -17 17 -19 23 -9
45 8 17 20 25 37 25 19 0 22 -2 10 -10 -12 -7 -12 -12 4 -29 13 -15 23 -18 31
-11 6 5 14 7 18 4 3 -3 18 16 33 42 26 44 54 131 91 279 19 77 22 345 4 435
-22 112 -84 290 -122 350 -5 8 -12 22 -16 30 -24 56 -125 193 -107 146 5 -13
-2 -16 -32 -15 -22 0 -33 3 -26 6 19 8 14 23 -8 23 -11 0 -20 5 -20 11 0 8 14
10 40 6 l40 -5 -30 37 c-67 86 -215 215 -285 251 -17 8 -32 17 -35 20 -15 17
-225 112 -285 129 -164 49 -336 60 -525 35z m837 -190 c-3 -3 -12 -4 -19 -1
-8 3 -5 6 6 6 11 1 17 -2 13 -5z m363 -373 c0 -11 -4 -10 -15 5 -8 10 -14 26
-14 34 0 11 3 10 14 -4 8 -11 15 -27 15 -35z m-19 -21 c5 0 9 -8 8 -17 0 -11
-3 -13 -6 -5 -2 6 -11 12 -19 12 -15 0 -19 22 -6 34 4 4 8 1 10 -8 2 -9 8 -16
13 -16z m161 -1022 c-7 -7 -12 -8 -12 -2 0 14 12 26 19 19 2 -3 -1 -11 -7 -17z
m-2277 -106 c-8 -8 -25 17 -25 38 0 9 6 6 16 -8 9 -13 13 -26 9 -30z m2205 24
c0 -8 3 -23 7 -33 6 -15 4 -16 -9 -6 -8 7 -18 10 -21 6 -4 -3 -7 6 -7 20 0 17
5 27 15 27 8 0 15 -6 15 -14z m-127 -90 c6 -16 -13 -26 -46 -25 l-22 0 23 9
c12 5 22 14 22 20 0 15 17 12 23 -4z m-19 -65 c3 -5 -1 -12 -10 -15 -25 -10
-34 -7 -34 9 0 16 35 21 44 6z m-73 -27 c16 -19 2 -47 -27 -53 -10 -2 -21 -7
-24 -12 -4 -5 -22 -11 -40 -14 -19 -3 -29 -3 -22 1 6 3 12 14 12 25 0 13 7 19
24 19 13 0 29 7 36 15 10 12 9 15 -4 15 -10 0 -14 5 -11 10 9 15 41 12 56 -6z
m-96 -104 c8 -13 -5 -13 -25 0 -13 8 -13 10 2 10 9 0 20 -4 23 -10z m-800
-399 c3 -5 1 -12 -5 -16 -5 -3 -10 1 -10 9 0 18 6 21 15 7z m-8 -57 c-3 -3
-12 -4 -19 -1 -8 3 -5 6 6 6 11 1 17 -2 13 -5z m60 0 c-3 -3 -12 -4 -19 -1 -8
3 -5 6 6 6 11 1 17 -2 13 -5z"/>
<path d="M18435 29241 c-3 -5 -1 -12 5 -16 12 -7 30 2 30 16 0 12 -27 12 -35
0z"/>
<path d="M13105 29010 c-17 -7 -16 -9 10 -9 17 0 37 4 45 9 12 8 10 10 -10 9
-14 0 -34 -4 -45 -9z"/>
<path d="M12728 28953 c7 -3 16 -2 19 1 4 3 -2 6 -13 5 -11 0 -14 -3 -6 -6z"/>
<path d="M27567 28416 c-124 -46 -288 -223 -512 -551 -26 -38 -67 -98 -91
-131 -24 -34 -44 -66 -44 -71 0 -5 -8 -18 -18 -29 -20 -22 -95 -132 -332 -489
-84 -126 -164 -242 -178 -257 -31 -33 -81 -45 -122 -28 -64 27 -166 159 -457
592 -86 128 -192 284 -237 346 -45 63 -94 133 -110 155 -65 92 -220 279 -279
337 -114 114 -110 113 -330 121 -307 12 -1085 11 -1152 -2 -185 -34 -274 -161
-305 -434 -16 -146 -32 -1052 -27 -1565 9 -978 24 -1398 53 -1500 30 -103 108
-197 201 -242 47 -23 53 -23 383 -23 294 0 339 2 368 17 18 9 29 12 26 6 -4
-5 18 3 47 20 33 18 67 48 87 76 38 54 39 63 47 369 5 206 5 208 -15 197 -28
-15 -26 5 2 25 21 14 23 25 26 125 4 96 2 110 -12 110 -9 0 -16 4 -16 10 0 5
6 7 13 4 11 -4 15 20 20 115 6 125 20 171 56 191 34 18 67 -5 105 -70 20 -34
36 -65 36 -69 0 -5 7 -12 16 -15 13 -5 15 -1 10 18 -4 18 -1 26 11 29 17 4 17
5 1 6 -14 1 -18 10 -17 44 1 35 2 38 9 17 7 -23 8 -23 15 -6 5 11 3 26 -4 37
-8 15 -8 19 1 19 9 0 9 3 0 12 -7 7 -12 19 -11 28 0 10 3 9 9 -5 7 -17 9 -17
9 -2 1 9 5 17 10 17 6 0 6 -12 1 -29 -4 -16 -4 -50 2 -77 6 -27 11 -58 12 -69
2 -11 6 -28 10 -37 5 -10 4 -31 -2 -46 -5 -16 -6 -35 -2 -42 4 -7 6 -20 4 -29
-2 -9 5 -27 15 -41 20 -25 20 -25 35 -5 21 29 28 15 31 -69 3 -62 7 -80 29
-109 14 -19 26 -38 26 -44 0 -12 98 -202 115 -223 6 -8 37 -63 68 -122 32 -58
73 -129 92 -158 19 -29 35 -56 35 -61 0 -5 4 -9 8 -9 5 0 15 -15 24 -33 29
-60 113 -151 167 -180 110 -60 256 -43 347 41 76 69 465 666 703 1077 51 88
102 170 114 183 40 43 91 19 107 -53 5 -20 13 -173 20 -338 26 -693 25 -679
48 -723 25 -49 71 -90 130 -116 38 -17 85 -20 420 -30 249 -7 502 -7 747 -1
l370 9 51 26 c100 52 166 157 184 291 34 264 53 897 47 1627 -3 355 -5 702 -6
771 0 246 -22 631 -40 724 -31 152 -90 249 -181 295 -84 43 -174 52 -590 56
-326 4 -402 2 -433 -10z m-2720 -2398 c-3 -8 -6 -5 -6 6 -1 11 2 17 5 13 3 -3
4 -12 1 -19z m83 -279 c0 -5 -4 -9 -10 -9 -5 0 -10 7 -10 16 0 8 5 12 10 9 6
-3 10 -10 10 -16z m-367 -74 c-3 -9 -8 -14 -10 -11 -3 3 -2 9 2 15 9 16 15 13
8 -4z m17 -126 c0 -17 -5 -39 -10 -50 -6 -11 -7 -26 -2 -36 10 -23 0 -94 -13
-93 -10 0 -15 122 -7 147 2 7 9 10 16 7 6 -3 3 1 -8 10 -21 17 -15 46 9 46 10
0 15 -10 15 -31z m5 -69 c3 -5 1 -10 -4 -10 -6 0 -11 5 -11 10 0 6 2 10 4 10
3 0 8 -4 11 -10z m-1145 -81 c0 -5 -7 -9 -15 -9 -8 0 -15 7 -15 15 0 9 6 12
15 9 8 -4 15 -10 15 -15z m1131 -205 c-5 -21 -9 -30 -10 -19 -1 24 10 67 15
62 3 -2 0 -22 -5 -43z"/>
<path d="M11145 27750 c3 -5 12 -7 20 -3 21 7 19 13 -6 13 -11 0 -18 -4 -14
-10z"/>
<path d="M11233 27695 c0 -22 2 -30 4 -17 2 12 2 30 0 40 -3 9 -5 -1 -4 -23z"/>
<path d="M11202 27620 c0 -14 2 -19 5 -12 2 6 2 18 0 25 -3 6 -5 1 -5 -13z"/>
<path d="M11231 27624 c0 -11 3 -14 6 -6 3 7 2 16 -1 19 -3 4 -6 -2 -5 -13z"/>
<path d="M11160 27310 c0 -5 5 -10 10 -10 6 0 10 5 10 10 0 6 -4 10 -10 10 -5
0 -10 -4 -10 -10z"/>
<path d="M11090 26870 c0 -12 8 -12 35 0 18 8 17 9 -7 9 -16 1 -28 -3 -28 -9z"/>
<path d="M13811 21854 c0 -11 3 -14 6 -6 3 7 2 16 -1 19 -3 4 -6 -2 -5 -13z"/>
<path d="M37857 18444 c-11 -11 -8 -44 3 -44 15 0 24 30 13 41 -5 5 -12 6 -16
3z"/>
<path d="M37335 17830 c-3 -5 1 -10 9 -10 9 0 16 5 16 10 0 6 -4 10 -9 10 -6
0 -13 -4 -16 -10z"/>
<path d="M36440 17080 c0 -5 5 -10 10 -10 6 0 10 5 10 10 0 6 -4 10 -10 10 -5
0 -10 -4 -10 -10z"/>
<path d="M35200 11830 c0 -5 4 -10 9 -10 6 0 13 5 16 10 3 6 -1 10 -9 10 -9 0
-16 -4 -16 -10z"/>
<path d="M21505 11190 c3 -5 8 -10 11 -10 2 0 4 5 4 10 0 6 -5 10 -11 10 -5 0
-7 -4 -4 -10z"/>
</g>
</svg>
